<mxfile host="app.diagrams.net" modified="2021-10-21T11:48:46.717Z" agent="5.0 (Windows NT 10.0; Win64; x64) AppleWebKit/537.36 (KHTML, like Gecko) Chrome/94.0.4606.81 Safari/537.36" etag="0Ap8-Cthk82HbrCsh6rl" version="15.5.5" type="github" pages="3">
  <diagram id="v0LjTMBqoU_i-tq950dD" name="Page-1">
    <mxGraphModel dx="575" dy="620" grid="1" gridSize="10" guides="1" tooltips="1" connect="1" arrows="1" fold="1" page="1" pageScale="1" pageWidth="827" pageHeight="1169" math="0" shadow="0">
      <root>
        <mxCell id="0" />
        <mxCell id="1" parent="0" />
        <mxCell id="g1GF7LbU0pF6LJhjBQTD-3" value="" style="edgeStyle=orthogonalEdgeStyle;rounded=0;orthogonalLoop=1;jettySize=auto;html=1;" edge="1" parent="1" source="g1GF7LbU0pF6LJhjBQTD-1" target="g1GF7LbU0pF6LJhjBQTD-2">
          <mxGeometry relative="1" as="geometry" />
        </mxCell>
        <mxCell id="g1GF7LbU0pF6LJhjBQTD-1" value="确定移动终端的运动模型" style="rounded=1;whiteSpace=wrap;html=1;" vertex="1" parent="1">
          <mxGeometry x="40" y="80" width="200" height="40" as="geometry" />
        </mxCell>
        <mxCell id="g1GF7LbU0pF6LJhjBQTD-5" value="" style="edgeStyle=orthogonalEdgeStyle;rounded=0;orthogonalLoop=1;jettySize=auto;html=1;" edge="1" parent="1" source="g1GF7LbU0pF6LJhjBQTD-2" target="g1GF7LbU0pF6LJhjBQTD-4">
          <mxGeometry relative="1" as="geometry" />
        </mxCell>
        <mxCell id="g1GF7LbU0pF6LJhjBQTD-2" value="对用户的位置进行跟踪和预测" style="whiteSpace=wrap;html=1;rounded=1;" vertex="1" parent="1">
          <mxGeometry x="40" y="160" width="200" height="40" as="geometry" />
        </mxCell>
        <mxCell id="g1GF7LbU0pF6LJhjBQTD-7" value="" style="edgeStyle=orthogonalEdgeStyle;rounded=0;orthogonalLoop=1;jettySize=auto;html=1;" edge="1" parent="1" source="g1GF7LbU0pF6LJhjBQTD-4" target="g1GF7LbU0pF6LJhjBQTD-6">
          <mxGeometry relative="1" as="geometry" />
        </mxCell>
        <mxCell id="g1GF7LbU0pF6LJhjBQTD-4" value="计算用户的水平方位角和垂直仰角" style="whiteSpace=wrap;html=1;rounded=1;" vertex="1" parent="1">
          <mxGeometry x="40" y="240" width="200" height="40" as="geometry" />
        </mxCell>
        <mxCell id="g1GF7LbU0pF6LJhjBQTD-6" value="用户天线波束与基站天线波束对准" style="whiteSpace=wrap;html=1;rounded=1;" vertex="1" parent="1">
          <mxGeometry x="40" y="320" width="200" height="40" as="geometry" />
        </mxCell>
        <mxCell id="g1GF7LbU0pF6LJhjBQTD-15" value="" style="edgeStyle=orthogonalEdgeStyle;rounded=0;orthogonalLoop=1;jettySize=auto;html=1;" edge="1" parent="1" source="g1GF7LbU0pF6LJhjBQTD-8" target="g1GF7LbU0pF6LJhjBQTD-14">
          <mxGeometry relative="1" as="geometry" />
        </mxCell>
        <mxCell id="g1GF7LbU0pF6LJhjBQTD-8" value="SSB捕获" style="rounded=1;whiteSpace=wrap;html=1;" vertex="1" parent="1">
          <mxGeometry x="320" y="80" width="160" height="40" as="geometry" />
        </mxCell>
        <mxCell id="g1GF7LbU0pF6LJhjBQTD-25" style="edgeStyle=orthogonalEdgeStyle;rounded=0;orthogonalLoop=1;jettySize=auto;html=1;exitX=0.5;exitY=1;exitDx=0;exitDy=0;" edge="1" parent="1" source="g1GF7LbU0pF6LJhjBQTD-9" target="g1GF7LbU0pF6LJhjBQTD-20">
          <mxGeometry relative="1" as="geometry" />
        </mxCell>
        <mxCell id="g1GF7LbU0pF6LJhjBQTD-9" value="基于CSI-RS和SRS的发射端波束细化" style="whiteSpace=wrap;html=1;rounded=1;" vertex="1" parent="1">
          <mxGeometry x="320" y="235" width="160" height="50" as="geometry" />
        </mxCell>
        <mxCell id="g1GF7LbU0pF6LJhjBQTD-45" value="" style="edgeStyle=orthogonalEdgeStyle;rounded=0;orthogonalLoop=1;jettySize=auto;html=1;" edge="1" parent="1" source="g1GF7LbU0pF6LJhjBQTD-11">
          <mxGeometry relative="1" as="geometry">
            <mxPoint x="400" y="460" as="targetPoint" />
          </mxGeometry>
        </mxCell>
        <mxCell id="g1GF7LbU0pF6LJhjBQTD-11" value="基于CSI-RS和SRS的接收端波束细化" style="whiteSpace=wrap;html=1;rounded=1;" vertex="1" parent="1">
          <mxGeometry x="320" y="390" width="160" height="50" as="geometry" />
        </mxCell>
        <mxCell id="g1GF7LbU0pF6LJhjBQTD-16" value="" style="edgeStyle=orthogonalEdgeStyle;rounded=0;orthogonalLoop=1;jettySize=auto;html=1;" edge="1" parent="1" source="g1GF7LbU0pF6LJhjBQTD-14" target="g1GF7LbU0pF6LJhjBQTD-9">
          <mxGeometry relative="1" as="geometry" />
        </mxCell>
        <mxCell id="g1GF7LbU0pF6LJhjBQTD-18" style="edgeStyle=orthogonalEdgeStyle;rounded=0;orthogonalLoop=1;jettySize=auto;html=1;exitX=1;exitY=0.5;exitDx=0;exitDy=0;entryX=1;entryY=0.5;entryDx=0;entryDy=0;" edge="1" parent="1" source="g1GF7LbU0pF6LJhjBQTD-14" target="g1GF7LbU0pF6LJhjBQTD-8">
          <mxGeometry relative="1" as="geometry" />
        </mxCell>
        <mxCell id="g1GF7LbU0pF6LJhjBQTD-14" value="max(RSRP)?" style="rhombus;whiteSpace=wrap;html=1;rounded=1;" vertex="1" parent="1">
          <mxGeometry x="305" y="155" width="190" height="45" as="geometry" />
        </mxCell>
        <mxCell id="g1GF7LbU0pF6LJhjBQTD-17" value="Y" style="text;html=1;align=center;verticalAlign=middle;resizable=0;points=[];autosize=1;strokeColor=none;fillColor=none;" vertex="1" parent="1">
          <mxGeometry x="404" y="210" width="20" height="20" as="geometry" />
        </mxCell>
        <mxCell id="g1GF7LbU0pF6LJhjBQTD-19" value="N" style="text;html=1;align=center;verticalAlign=middle;resizable=0;points=[];autosize=1;strokeColor=none;fillColor=none;" vertex="1" parent="1">
          <mxGeometry x="520" y="130" width="20" height="20" as="geometry" />
        </mxCell>
        <mxCell id="g1GF7LbU0pF6LJhjBQTD-26" value="" style="edgeStyle=orthogonalEdgeStyle;rounded=0;orthogonalLoop=1;jettySize=auto;html=1;" edge="1" parent="1" source="g1GF7LbU0pF6LJhjBQTD-20" target="g1GF7LbU0pF6LJhjBQTD-11">
          <mxGeometry relative="1" as="geometry" />
        </mxCell>
        <mxCell id="g1GF7LbU0pF6LJhjBQTD-28" style="edgeStyle=orthogonalEdgeStyle;rounded=0;orthogonalLoop=1;jettySize=auto;html=1;exitX=1;exitY=0.5;exitDx=0;exitDy=0;entryX=1;entryY=0.5;entryDx=0;entryDy=0;" edge="1" parent="1" source="g1GF7LbU0pF6LJhjBQTD-20" target="g1GF7LbU0pF6LJhjBQTD-9">
          <mxGeometry relative="1" as="geometry" />
        </mxCell>
        <mxCell id="g1GF7LbU0pF6LJhjBQTD-20" value="max(RSRP)?" style="rhombus;whiteSpace=wrap;html=1;rounded=1;" vertex="1" parent="1">
          <mxGeometry x="305" y="310" width="190" height="45" as="geometry" />
        </mxCell>
        <mxCell id="g1GF7LbU0pF6LJhjBQTD-21" value="Y" style="text;html=1;align=center;verticalAlign=middle;resizable=0;points=[];autosize=1;strokeColor=none;fillColor=none;" vertex="1" parent="1">
          <mxGeometry x="404" y="360" width="20" height="20" as="geometry" />
        </mxCell>
        <mxCell id="g1GF7LbU0pF6LJhjBQTD-22" value="N" style="text;html=1;align=center;verticalAlign=middle;resizable=0;points=[];autosize=1;strokeColor=none;fillColor=none;" vertex="1" parent="1">
          <mxGeometry x="520" y="290" width="20" height="20" as="geometry" />
        </mxCell>
        <mxCell id="g1GF7LbU0pF6LJhjBQTD-46" style="edgeStyle=orthogonalEdgeStyle;rounded=0;orthogonalLoop=1;jettySize=auto;html=1;exitX=1;exitY=0.5;exitDx=0;exitDy=0;entryX=1;entryY=0.5;entryDx=0;entryDy=0;" edge="1" parent="1" source="g1GF7LbU0pF6LJhjBQTD-29" target="g1GF7LbU0pF6LJhjBQTD-11">
          <mxGeometry relative="1" as="geometry" />
        </mxCell>
        <mxCell id="g1GF7LbU0pF6LJhjBQTD-47" style="edgeStyle=orthogonalEdgeStyle;rounded=0;orthogonalLoop=1;jettySize=auto;html=1;entryX=0.5;entryY=0;entryDx=0;entryDy=0;" edge="1" parent="1" source="g1GF7LbU0pF6LJhjBQTD-29" target="g1GF7LbU0pF6LJhjBQTD-30">
          <mxGeometry relative="1" as="geometry" />
        </mxCell>
        <mxCell id="g1GF7LbU0pF6LJhjBQTD-29" value="max(RSRP)?" style="rhombus;whiteSpace=wrap;html=1;rounded=1;" vertex="1" parent="1">
          <mxGeometry x="305" y="460" width="190" height="45" as="geometry" />
        </mxCell>
        <mxCell id="g1GF7LbU0pF6LJhjBQTD-30" value="最佳波束确定" style="whiteSpace=wrap;html=1;rounded=1;" vertex="1" parent="1">
          <mxGeometry x="320" y="535" width="160" height="30" as="geometry" />
        </mxCell>
        <mxCell id="g1GF7LbU0pF6LJhjBQTD-36" value="Y" style="text;html=1;align=center;verticalAlign=middle;resizable=0;points=[];autosize=1;strokeColor=none;fillColor=none;" vertex="1" parent="1">
          <mxGeometry x="404" y="505" width="20" height="20" as="geometry" />
        </mxCell>
        <mxCell id="g1GF7LbU0pF6LJhjBQTD-48" value="N" style="text;html=1;align=center;verticalAlign=middle;resizable=0;points=[];autosize=1;strokeColor=none;fillColor=none;" vertex="1" parent="1">
          <mxGeometry x="520" y="440" width="20" height="20" as="geometry" />
        </mxCell>
      </root>
    </mxGraphModel>
  </diagram>
  <diagram id="9xfztljBDzdJ6UgoaN6b" name="Page-2">
    <mxGraphModel dx="690" dy="744" grid="1" gridSize="10" guides="1" tooltips="1" connect="1" arrows="1" fold="1" page="1" pageScale="1" pageWidth="827" pageHeight="1169" math="0" shadow="0">
      <root>
        <mxCell id="WXKGBrs3ciIO2fFZ4pAg-0" />
        <mxCell id="WXKGBrs3ciIO2fFZ4pAg-1" parent="WXKGBrs3ciIO2fFZ4pAg-0" />
        <mxCell id="lZF_Is9IJF7APFlS0LPr-0" value="粗波束初步建立连接" style="rounded=1;whiteSpace=wrap;html=1;" vertex="1" parent="WXKGBrs3ciIO2fFZ4pAg-1">
          <mxGeometry x="40" y="40" width="160" height="40" as="geometry" />
        </mxCell>
      </root>
    </mxGraphModel>
  </diagram>
  <diagram id="3WmBDydl_84s1r6peomO" name="Page-3">
    <mxGraphModel dx="1955" dy="887" grid="1" gridSize="10" guides="1" tooltips="1" connect="1" arrows="1" fold="1" page="1" pageScale="1" pageWidth="827" pageHeight="1169" math="0" shadow="0">
      <root>
        <mxCell id="aAynvqBphKSTQ-f1sGw3-0" />
        <mxCell id="aAynvqBphKSTQ-f1sGw3-1" parent="aAynvqBphKSTQ-f1sGw3-0" />
        <mxCell id="1rgbiX7z5d-bjgeK10AK-0" value="" style="ellipse;whiteSpace=wrap;html=1;" vertex="1" parent="aAynvqBphKSTQ-f1sGw3-1">
          <mxGeometry x="120" y="170" width="530" height="320" as="geometry" />
        </mxCell>
        <mxCell id="aAynvqBphKSTQ-f1sGw3-2" value="" style="fontColor=#0066CC;verticalAlign=top;verticalLabelPosition=bottom;labelPosition=center;align=center;html=1;outlineConnect=0;fillColor=#CCCCCC;strokeColor=#6881B3;gradientColor=none;gradientDirection=north;strokeWidth=2;shape=mxgraph.networks.radio_tower;" vertex="1" parent="aAynvqBphKSTQ-f1sGw3-1">
          <mxGeometry x="350" y="270" width="55" height="80" as="geometry" />
        </mxCell>
        <mxCell id="aAynvqBphKSTQ-f1sGw3-3" value="" style="sketch=0;pointerEvents=1;shadow=0;dashed=0;html=1;strokeColor=none;fillColor=#505050;labelPosition=center;verticalLabelPosition=bottom;verticalAlign=top;outlineConnect=0;align=center;shape=mxgraph.office.devices.cell_phone_iphone_standalone;" vertex="1" parent="aAynvqBphKSTQ-f1sGw3-1">
          <mxGeometry x="470" y="410" width="15" height="25.2" as="geometry" />
        </mxCell>
        <mxCell id="1rgbiX7z5d-bjgeK10AK-2" value="" style="endArrow=none;html=1;rounded=0;" edge="1" parent="aAynvqBphKSTQ-f1sGw3-1" source="aAynvqBphKSTQ-f1sGw3-2" target="aAynvqBphKSTQ-f1sGw3-3">
          <mxGeometry width="50" height="50" relative="1" as="geometry">
            <mxPoint x="370" y="450" as="sourcePoint" />
            <mxPoint x="420" y="400" as="targetPoint" />
          </mxGeometry>
        </mxCell>
        <mxCell id="1rgbiX7z5d-bjgeK10AK-3" value="" style="sketch=0;pointerEvents=1;shadow=0;dashed=0;html=1;strokeColor=none;fillColor=#505050;labelPosition=center;verticalLabelPosition=bottom;verticalAlign=top;outlineConnect=0;align=center;shape=mxgraph.office.devices.cell_phone_iphone_standalone;" vertex="1" parent="aAynvqBphKSTQ-f1sGw3-1">
          <mxGeometry x="530" y="361.6" width="15" height="25.2" as="geometry" />
        </mxCell>
        <mxCell id="1rgbiX7z5d-bjgeK10AK-4" value="" style="endArrow=none;html=1;rounded=0;" edge="1" parent="aAynvqBphKSTQ-f1sGw3-1" source="1rgbiX7z5d-bjgeK10AK-3" target="aAynvqBphKSTQ-f1sGw3-2">
          <mxGeometry width="50" height="50" relative="1" as="geometry">
            <mxPoint x="415" y="338.9115384615384" as="sourcePoint" />
            <mxPoint x="510" y="404.2423076923076" as="targetPoint" />
          </mxGeometry>
        </mxCell>
        <mxCell id="1rgbiX7z5d-bjgeK10AK-5" value="" style="endArrow=none;dashed=1;html=1;dashPattern=1 3;strokeWidth=2;rounded=0;" edge="1" parent="aAynvqBphKSTQ-f1sGw3-1">
          <mxGeometry width="50" height="50" relative="1" as="geometry">
            <mxPoint x="485" y="436.8" as="sourcePoint" />
            <mxPoint x="535" y="386.8" as="targetPoint" />
          </mxGeometry>
        </mxCell>
        <mxCell id="1rgbiX7z5d-bjgeK10AK-6" value="移动" style="text;html=1;strokeColor=none;fillColor=none;align=center;verticalAlign=middle;whiteSpace=wrap;rounded=0;" vertex="1" parent="aAynvqBphKSTQ-f1sGw3-1">
          <mxGeometry x="490" y="405.2" width="60" height="30" as="geometry" />
        </mxCell>
        <mxCell id="1rgbiX7z5d-bjgeK10AK-7" value="(θ1，φ1)" style="text;html=1;strokeColor=none;fillColor=none;align=center;verticalAlign=middle;whiteSpace=wrap;rounded=0;" vertex="1" parent="aAynvqBphKSTQ-f1sGw3-1">
          <mxGeometry x="414" y="435" width="60" height="30" as="geometry" />
        </mxCell>
        <mxCell id="1rgbiX7z5d-bjgeK10AK-8" value="(θ2，φ2)" style="text;html=1;strokeColor=none;fillColor=none;align=center;verticalAlign=middle;whiteSpace=wrap;rounded=0;" vertex="1" parent="aAynvqBphKSTQ-f1sGw3-1">
          <mxGeometry x="530" y="386.8" width="60" height="30" as="geometry" />
        </mxCell>
        <mxCell id="1rgbiX7z5d-bjgeK10AK-10" value="" style="endArrow=classic;html=1;rounded=0;" edge="1" parent="aAynvqBphKSTQ-f1sGw3-1">
          <mxGeometry width="50" height="50" relative="1" as="geometry">
            <mxPoint x="375" y="330" as="sourcePoint" />
            <mxPoint x="690" y="330" as="targetPoint" />
          </mxGeometry>
        </mxCell>
        <mxCell id="1rgbiX7z5d-bjgeK10AK-11" value="" style="endArrow=classic;html=1;rounded=0;" edge="1" parent="aAynvqBphKSTQ-f1sGw3-1">
          <mxGeometry width="50" height="50" relative="1" as="geometry">
            <mxPoint x="375" y="330" as="sourcePoint" />
            <mxPoint x="170" y="530" as="targetPoint" />
          </mxGeometry>
        </mxCell>
        <mxCell id="1rgbiX7z5d-bjgeK10AK-12" value="" style="endArrow=classic;html=1;rounded=0;" edge="1" parent="aAynvqBphKSTQ-f1sGw3-1">
          <mxGeometry width="50" height="50" relative="1" as="geometry">
            <mxPoint x="375" y="330" as="sourcePoint" />
            <mxPoint x="375" y="130" as="targetPoint" />
          </mxGeometry>
        </mxCell>
        <mxCell id="1rgbiX7z5d-bjgeK10AK-14" value="x" style="text;html=1;strokeColor=none;fillColor=none;align=center;verticalAlign=middle;whiteSpace=wrap;rounded=0;" vertex="1" parent="aAynvqBphKSTQ-f1sGw3-1">
          <mxGeometry x="190" y="500" width="60" height="30" as="geometry" />
        </mxCell>
        <mxCell id="1rgbiX7z5d-bjgeK10AK-15" value="y" style="text;html=1;strokeColor=none;fillColor=none;align=center;verticalAlign=middle;whiteSpace=wrap;rounded=0;" vertex="1" parent="aAynvqBphKSTQ-f1sGw3-1">
          <mxGeometry x="650" y="340" width="60" height="30" as="geometry" />
        </mxCell>
        <mxCell id="1rgbiX7z5d-bjgeK10AK-16" value="z" style="text;html=1;strokeColor=none;fillColor=none;align=center;verticalAlign=middle;whiteSpace=wrap;rounded=0;" vertex="1" parent="aAynvqBphKSTQ-f1sGw3-1">
          <mxGeometry x="370" y="110" width="60" height="30" as="geometry" />
        </mxCell>
      </root>
    </mxGraphModel>
  </diagram>
</mxfile>
